PathFileType  4	(X/Y/Z) C:\Users\hpl\Documents\MyRepositories\mocap-processing\Data\treadmill\running\
DataRate	CameraRate	NumFrames	NumMarkers	Units	OrigDataRate	OrigDataStartFrame	OrigNumFrames
  200.0		  200.0		    7		     46		 mm	  200.0	      393	    785
Frame#	Time	r_knee			r_shank_antsup			r_ankle			r_calc			r_5meta			r_toe			L_knee			L_shank_antsup			L_ankle			L_calc			L_5meta			L_toe			r_sh2			r_sh3			r_sh4			L_sh2			L_sh3			r_thigh1			r_thigh2			r_thigh3			r_thigh4			r_thigh5			L_thigh1			L_thigh2			L_thigh3			L_thigh4			r.ASIS			r.PSIS			L.ASIS			L.PSIS			C7			R_Shoulder			L_Shoulder			Sternum			R_humerus			R_elbow_med			R_elbow_lat			R_forearm			R_wrist_radius			R_wrist_ulna			L_humerus			L_elbow_med			L_elbow_lat			L_forearm			L_wrist_radius			L_wrist_ulna			
		X1	Y1	Z1	X2	Y2	Z2	X3	Y3	Z3	X4	Y4	Z4	X5	Y5	Z5	X6	Y6	Z6	X7	Y7	Z7	X8	Y8	Z8	X9	Y9	Z9	X10	Y10	Z10	X11	Y11	Z11	X12	Y12	Z12	X13	Y13	Z13	X14	Y14	Z14	X15	Y15	Z15	X16	Y16	Z16	X17	Y17	Z17	X18	Y18	Z18	X19	Y19	Z19	X20	Y20	Z20	X21	Y21	Z21	X22	Y22	Z22	X23	Y23	Z23	X24	Y24	Z24	X25	Y25	Z25	X26	Y26	Z26	X27	Y27	Z27	X28	Y28	Z28	X29	Y29	Z29	X30	Y30	Z30	X31	Y31	Z31	X32	Y32	Z32	X33	Y33	Z33	X34	Y34	Z34	X35	Y35	Z35	X36	Y36	Z36	X37	Y37	Z37	X38	Y38	Z38	X39	Y39	Z39	X40	Y40	Z40	X41	Y41	Z41	X42	Y42	Z42	X43	Y43	Z43	X44	Y44	Z44	X45	Y45	Z45	X46	Y46	Z46	

393	1.96000	660.480	127.266	499.842	612.625	129.999	384.002	370.216	193.637	167.559	295.405	262.608	185.159	417.223	165.784	39.790	468.140	224.289	47.953	1003.005	445.898	588.160	932.896	442.143	491.747	650.538	393.620	353.202	593.515	340.545	380.638	694.564	415.530	195.698	731.972	348.373	180.445	530.576	149.427	298.753	557.257	111.747	430.423	472.759	142.153	357.535	885.334	453.259	567.651	787.657	434.566	496.477	796.692	96.853	694.988	759.235	112.681	588.268	709.373	108.426	566.884	686.987	77.605	719.393	658.818	108.025	608.773	965.352	439.073	816.248	1037.824	425.947	697.130	873.602	488.277	759.462	945.937	457.295	643.393	843.874	135.184	977.920	642.986	212.713	1057.136	835.022	410.042	992.626	637.822	319.403	1055.458	774.371	257.463	1536.881	836.677	70.428	1494.285	791.900	446.362	1520.548	921.791	282.733	1420.416	787.865	-10.201	1271.121	669.794	21.879	1158.906	689.645	-64.120	1190.258	858.365	-7.825	1154.594	955.625	39.894	1127.570	947.222	10.726	1085.172	646.091	541.277	1339.682	510.259	485.966	1278.938	545.164	569.068	1315.091	658.794	556.334	1191.081	752.286	499.182	1149.237	710.305	532.631	1098.641
394	1.96500	648.130	126.369	506.032	598.206	127.699	391.001	355.737	191.028	173.470	283.252	260.369	193.919	396.245	165.169	41.319	446.573	224.532	47.864	1006.830	445.634	593.798	941.575	441.892	492.534	668.264	392.129	337.359	610.044	338.683	361.215	722.380	413.532	183.044	760.934	346.400	170.672	515.811	146.756	306.160	543.178	110.973	437.977	458.585	141.563	365.408	889.682	452.416	565.567	796.548	433.661	487.976	791.222	97.975	697.017	750.526	111.412	591.967	700.574	108.728	570.737	682.522	77.298	724.285	650.836	107.641	614.721	968.259	439.687	822.721	1041.225	425.913	704.196	876.808	488.674	764.955	949.773	457.576	649.492	846.028	136.143	980.242	645.284	212.083	1060.172	836.862	409.759	997.526	639.731	318.126	1059.336	774.186	257.509	1540.524	838.693	71.925	1498.385	789.151	445.839	1525.058	921.624	284.602	1425.147	791.716	-10.358	1275.670	673.381	20.729	1163.033	694.158	-65.097	1194.271	862.660	-6.971	1162.670	959.573	41.089	1137.780	952.741	12.897	1095.372	642.145	540.754	1345.970	506.040	484.607	1286.201	540.611	567.867	1322.299	654.320	556.215	1199.051	748.473	500.130	1157.025	706.043	533.293	1106.457
395	1.97000	636.084	125.519	512.650	584.567	125.418	398.576	342.395	188.106	179.099	272.078	258.215	202.750	375.505	164.467	43.037	425.601	223.858	48.417	1009.869	445.374	598.634	950.531	441.543	492.775	686.797	390.622	321.845	626.885	338.229	342.346	750.814	411.608	170.940	790.099	344.661	161.407	501.808	144.065	313.899	529.081	109.644	446.435	445.138	140.817	373.530	893.929	451.821	562.752	806.067	432.206	479.110	786.082	98.734	699.479	742.408	111.437	596.016	692.221	109.166	575.036	678.240	76.866	729.469	643.390	106.285	620.673	971.182	440.150	828.883	1044.271	425.610	710.386	880.017	489.056	770.152	953.428	457.846	655.208	848.248	136.589	982.469	647.712	211.255	1062.762	838.846	409.669	1002.467	641.804	317.611	1062.829	773.907	256.061	1544.242	839.731	72.915	1502.624	786.707	445.218	1529.357	921.638	286.302	1429.978	795.382	-10.313	1280.074	676.704	19.581	1167.198	698.533	-66.454	1198.411	866.576	-6.045	1170.797	963.694	43.922	1148.123	957.868	14.937	1105.565	638.361	540.406	1352.121	502.144	482.972	1293.293	536.246	566.756	1329.437	650.149	555.984	1206.912	744.451	500.790	1164.533	702.095	533.868	1114.188
396	1.97500	624.856	124.782	519.522	571.298	123.556	406.711	330.006	184.946	184.658	261.848	255.696	212.151	355.268	163.742	45.133	405.198	223.130	49.386	1012.504	445.146	602.880	958.694	441.372	492.622	705.205	389.919	307.086	645.732	334.909	322.761	778.674	409.791	159.630	819.270	342.753	152.836	488.570	141.289	321.984	515.985	109.068	454.983	432.333	140.542	381.716	898.274	450.787	558.786	815.305	431.136	470.268	780.862	99.963	701.925	734.930	113.315	600.296	684.057	109.484	579.631	674.257	76.631	734.736	636.122	105.529	626.805	973.859	440.678	834.300	1047.191	425.522	716.051	882.759	489.435	775.001	956.314	457.874	660.263	850.542	138.202	985.105	650.091	211.538	1066.008	840.849	409.476	1007.116	644.020	316.979	1066.032	773.488	256.012	1547.571	840.890	74.026	1506.830	784.401	444.555	1533.490	921.754	288.043	1434.547	798.905	-10.339	1284.532	679.911	18.608	1171.350	702.277	-67.757	1202.768	870.148	-5.156	1178.935	967.149	45.756	1158.487	962.529	17.057	1115.561	634.853	539.963	1358.286	498.463	481.294	1300.174	532.118	565.433	1336.445	646.084	555.822	1214.576	740.702	501.377	1171.966	698.435	534.372	1121.629
397	1.98000	613.951	124.930	526.510	558.756	122.037	415.508	318.710	181.408	189.903	252.732	252.769	221.812	335.321	162.882	47.858	385.498	222.079	50.882	1014.270	446.117	606.114	966.684	441.189	492.150	725.577	388.930	290.695	664.855	333.436	303.867	807.152	407.912	148.434	848.366	340.899	144.903	476.193	138.618	330.500	503.342	108.902	463.899	419.634	140.812	390.806	902.270	450.960	554.412	824.982	430.738	461.671	775.898	100.784	704.765	727.839	115.717	605.020	676.127	112.255	583.970	670.344	76.291	740.086	629.266	104.967	633.467	976.497	441.388	839.195	1049.749	425.605	720.740	885.432	489.631	779.312	958.688	457.694	664.777	853.006	139.252	987.760	652.661	210.527	1068.738	842.626	409.563	1011.492	646.683	316.622	1068.896	773.495	256.088	1551.112	841.603	75.130	1510.966	782.338	443.951	1537.515	919.404	289.829	1438.291	802.335	-10.313	1288.922	683.948	15.565	1174.604	706.226	-69.072	1207.055	873.343	-4.264	1186.929	970.221	47.562	1168.611	966.757	19.044	1125.393	631.440	539.618	1364.392	494.757	479.975	1307.036	528.232	564.117	1343.279	642.136	555.589	1221.901	737.386	502.081	1179.366	694.948	534.774	1129.060
398	1.98500	603.869	124.593	533.986	546.677	121.164	424.715	308.347	177.669	195.577	244.467	248.899	231.990	315.912	162.007	51.930	366.248	221.434	52.928	1015.847	445.261	608.628	974.398	441.110	491.531	745.959	387.818	275.197	684.794	332.098	285.313	835.791	406.277	138.032	877.805	339.316	137.926	464.711	135.979	339.160	491.266	109.009	473.256	408.181	140.600	399.393	905.973	451.867	550.233	836.001	429.889	451.685	771.214	101.705	707.775	720.363	116.591	609.579	668.631	113.351	589.233	666.879	76.115	745.617	622.823	104.897	640.146	979.142	442.073	843.340	1051.594	425.901	724.381	887.278	489.692	783.139	960.241	457.449	668.251	855.409	140.197	990.338	655.038	210.539	1071.856	844.470	409.806	1015.405	648.655	316.305	1072.145	772.952	255.573	1553.774	842.327	76.293	1514.941	780.739	443.171	1541.087	918.939	291.306	1442.506	805.561	-10.209	1293.218	686.879	14.316	1178.378	710.027	-70.101	1210.827	876.234	-3.411	1194.698	972.908	49.388	1178.458	970.660	20.830	1135.148	628.150	539.151	1370.433	491.564	478.248	1313.715	524.565	562.643	1350.003	638.408	555.348	1229.004	734.070	502.681	1186.470	691.504	535.260	1136.270
399	1.99000	594.586	124.633	541.631	535.534	120.504	434.354	298.790	173.992	201.961	237.190	244.608	242.954	297.513	160.912	57.057	348.084	220.244	55.965	1017.219	445.524	610.443	981.474	441.280	490.741	766.549	386.952	259.919	705.620	330.601	266.812	864.735	404.936	128.221	907.147	338.915	132.122	453.778	134.186	348.095	480.063	109.390	482.613	397.474	140.434	408.051	909.769	451.989	545.068	845.558	429.352	442.795	766.877	102.696	710.860	713.412	126.727	609.913	661.965	107.724	598.565	663.811	75.589	751.151	616.816	105.344	647.014	980.066	442.956	845.839	1053.172	426.188	727.258	889.078	489.684	786.192	961.429	456.865	671.322	857.685	141.087	992.614	657.735	208.995	1074.786	846.308	409.920	1019.051	651.003	315.773	1075.072	772.791	256.263	1556.651	843.032	77.496	1518.547	779.341	442.459	1544.572	918.486	292.575	1446.584	808.512	-10.329	1297.432	689.616	12.938	1182.139	713.239	-71.049	1215.000	878.702	-2.677	1202.264	975.194	51.264	1188.036	974.125	22.676	1144.514	624.999	538.825	1376.387	488.488	476.597	1320.264	521.205	561.287	1356.610	634.739	555.077	1235.900	731.058	503.080	1193.228	688.173	535.599	1142.971
